<?xml version="1.0" standalone="no"?>
<!DOCTYPE svg PUBLIC "-//W3C//DTD SVG 20010904//EN"
 "http://www.w3.org/TR/2001/REC-SVG-20010904/DTD/svg10.dtd">
<svg version="1.0" xmlns="http://www.w3.org/2000/svg"
 width="1200.000000pt" height="648.000000pt" viewBox="0 0 1200.000000 648.000000"
 preserveAspectRatio="xMidYMid meet">

<g transform="translate(0.000000,648.000000) scale(0.100000,-0.100000)"
fill="rgb(57 57 57)" stroke="none">
<path d="M5705 6313 c-22 -2 -103 -12 -180 -23 -781 -110 -1501 -547 -2008
-1218 -332 -441 -532 -954 -587 -1511 -13 -133 -13 -509 0 -642 83 -837 489
-1564 1185 -2124 323 -260 759 -470 1160 -560 273 -61 362 -69 725 -69 363 0
452 8 725 69 685 153 1329 589 1782 1205 318 433 509 936 563 1479 13 133 13
509 0 642 -85 859 -522 1622 -1238 2162 -441 332 -954 532 -1511 587 -94 9
-520 11 -616 3z m-618 -1902 c309 -77 559 -324 686 -676 45 -125 86 -378 87
-527 l0 -58 -861 0 -862 0 6 -112 c4 -62 14 -140 23 -173 65 -240 230 -404
475 -471 90 -25 319 -26 409 -1 193 52 358 203 386 353 l6 34 190 0 190 0 -7
-32 c-22 -106 -88 -254 -151 -339 -67 -92 -203 -203 -319 -261 -130 -66 -328
-108 -505 -108 -324 0 -578 95 -771 289 -175 176 -268 383 -315 705 -20 134
-14 402 10 511 70 309 232 563 458 716 122 83 308 155 448 173 86 11 336 -3
417 -23z m1493 -66 c412 -604 503 -735 511 -735 4 0 139 185 300 411 161 226
297 413 303 415 6 2 114 3 239 2 l228 -3 -397 -530 c-218 -291 -403 -540 -411
-552 -14 -20 -9 -30 85 -160 167 -234 661 -922 737 -1028 39 -55 75 -106 79
-112 6 -10 -46 -13 -246 -13 l-253 1 -329 489 c-181 270 -332 490 -336 490 -4
0 -155 -220 -336 -490 l-329 -489 -237 -1 c-131 0 -238 2 -238 4 0 3 112 161
249 353 136 191 336 472 444 623 108 151 195 281 192 288 -2 7 -110 155 -238
330 -513 696 -577 784 -577 793 0 5 107 9 248 9 l247 0 65 -95z"/>
<path d="M4700 4100 c-146 -19 -254 -73 -361 -180 -63 -61 -84 -92 -122 -170
-43 -89 -77 -207 -77 -264 l0 -26 655 0 655 0 0 33 c0 60 -38 186 -82 270 -95
182 -274 307 -482 336 -84 12 -104 12 -186 1z"/>
</g>
</svg>
