<?xml version="1.0" encoding="UTF-8"?>
<svg width="48px" height="48px" viewBox="0 0 48 48" version="1.1" xmlns="http://www.w3.org/2000/svg" xmlns:xlink="http://www.w3.org/1999/xlink">
    <title>ai</title>
    <g id="ai" stroke="none" stroke-width="1" fill="none" fill-rule="evenodd">
        <g id="chatgpt-green-circular-logo-22057" transform="translate(3.4066, 3.4066)" fill-rule="nonzero">
            <path d="M21.0004667,42 L21.0004667,42 C9.40193333,42 0,32.5980667 0,21 L0,21 C0,9.40193333 9.40193333,0 21,0 L21,0 C32.5980667,0 42,9.40193333 42,21 L42,21.0004667 C42,32.5980667 32.5980667,42 21.0004667,42 Z" id="Path" fill="#74AA9C"></path>
            <path d="M33.0064,18.4282 L32.9966,18.4198 C33.6154,16.5148667 33.3923333,14.4368 32.3834,12.7073333 C30.8499333,10.0515333 27.7802,8.67813333 24.7837333,9.3114 L24.7716,9.3156 C23.4308667,7.8274 21.5198667,6.98133333 19.5178667,6.99059025 C16.4514,6.99059025 13.727,8.96233333 12.7773333,11.8743333 L12.775,11.8869333 C10.8159333,12.3036667 9.12753333,13.5356667 8.13446667,15.2744667 C6.601,17.9302667 6.94633333,21.2753333 8.9936,23.5536 L9.0034,23.562 C8.3846,25.4669333 8.60766667,27.545 9.6166,29.2744667 C11.1500667,31.9302667 14.2198,33.3036667 17.2162667,32.6704 L17.2284,32.6662 C18.5691333,34.1544 20.4801333,35.0004667 22.4821333,34.9912097 C25.5486,34.9912097 28.273,33.0194667 29.2226667,30.1074667 L29.225,30.0948667 C31.1840667,29.6781333 32.8724667,28.4461333 33.8655333,26.7073333 C35.3985333,24.0515333 35.0536667,20.7064667 33.0064,18.4282 Z M23.7738667,22.5927333 L21,24.1943333 L18.2261333,22.5927333 L18.2261333,19.3895333 L21,17.7879333 L23.7738667,19.3895333 L23.7738667,22.5927333 Z M30.807,13.6178 L30.7944,13.6145333 C31.4085333,14.6785333 31.633,15.9124 31.43,17.1234 L25.7063333,13.8189333 C25.6321333,13.776 25.5542,13.7452 25.4744,13.7246667 C25.2406,13.6588667 24.9862667,13.6896667 24.7674,13.8161333 L18.2312667,17.5900667 L18.2294,14.833 L23.6287333,11.7147333 C24.1509333,11.4123333 24.7198,11.2056 25.3087333,11.0978 L25.3054667,11.0861333 C27.4278667,10.6932 29.6613333,11.6405333 30.807,13.6178 Z M19.5178667,8.81113333 L19.5085333,8.82046667 C20.7372667,8.82046667 21.9179333,9.24326667 22.8652667,10.0244667 L17.1416,13.3289333 C17.0674,13.3718667 17.0016,13.4241333 16.9442,13.4824667 C16.7701333,13.6518667 16.6698,13.8875333 16.6698,14.1409333 L16.6698,21.6883333 L14.2809333,20.3112 L14.2799939,14.0760667 C14.2790667,13.4726667 14.3845333,12.8767333 14.5856667,12.3125333 L14.574,12.3097333 C15.2954667,10.2755333 17.2326,8.81486667 19.5178667,8.81113333 Z M9.71086667,16.1849333 L9.71413333,16.1975333 C10.3282667,15.1335333 11.2849333,14.3224667 12.4348,13.8926667 L12.4348,20.5020667 C12.4348,20.5879333 12.4469333,20.6705333 12.4688667,20.7498667 C12.5286,20.9850667 12.6826,21.1899333 12.9019333,21.3164 L19.4380667,25.0903333 L17.0510667,26.4707333 L11.6508,23.3543333 C11.1276667,23.0533333 10.6647333,22.6641333 10.2764667,22.2077333 L10.2680667,22.2166 C8.86806667,20.5734667 8.57126667,18.1659333 9.71086667,16.1849333 Z M11.193,28.3649333 L11.2056,28.3682 C10.5914667,27.3042 10.367,26.0703333 10.57,24.8593333 L16.2936667,28.1638 C16.3678667,28.2067333 16.4458,28.2375333 16.5251333,28.2580667 C16.7589333,28.3238667 17.0132667,28.2930667 17.2326,28.1666 L23.7687333,24.3926667 L23.7706,27.1497333 L18.3712667,30.268 C17.8490667,30.5704 17.2802,30.7766667 16.6912667,30.8849333 L16.6945333,30.8966 C14.5721333,31.2890667 12.3386667,30.3422 11.193,28.3649333 Z M22.4821333,33.1711333 L22.4914667,33.1618 C21.2627333,33.1618 20.0820667,32.739 19.1347333,31.9578 L24.8588667,28.6533333 C24.9330667,28.6104 24.9988667,28.5586 25.0562667,28.4998 C25.2303333,28.3304 25.3306667,28.0947333 25.3306667,27.8413333 L25.3306667,20.2944 L27.7195333,21.6715333 L27.7204728,27.9066667 C27.7214,28.5100667 27.6159333,29.106 27.4148,29.6702 L27.4264667,29.673 C26.7045333,31.7067333 24.7674,33.1678667 22.4821333,33.1711333 Z M32.2891333,25.7978 L32.2891333,25.7978 L32.2858667,25.7852 C31.6717333,26.8492 30.7150667,27.6602667 29.5652,28.0900667 L29.5652,21.4806667 C29.5652,21.3948 29.5530667,21.3122 29.5311333,21.2328667 C29.4714,20.9976667 29.3174,20.7928 29.0980667,20.6663333 L22.5619333,16.8924 L24.9489333,15.512 L30.3492,18.6284 C30.8723333,18.9294 31.3352667,19.3186 31.7235333,19.775 L31.7319333,19.7661333 C33.1319333,21.4088 33.4287333,23.8168 32.2891333,25.7978 Z" id="Shape" fill="#FFFFFF"></path>
        </g>
    </g>
</svg>